HIERARCHY
ROOT joint_Root
{
	OFFSET 0.0 0.0 0.0
	CHANNELS 6 Xposition Yposition Zposition Zrotation Xrotation Yrotation 
	JOINT Hips
	{
		OFFSET -0.726466 93.3139 -2.00062
		CHANNELS 6 Xposition Yposition Zposition Zrotation Xrotation Yrotation 
		JOINT Spine
		{
			OFFSET 15.7357 0.0 0.0
			CHANNELS 6 Xposition Yposition Zposition Zrotation Xrotation Yrotation 
			JOINT Chest
			{
				OFFSET 8.98455 -0.406207 0.0
				CHANNELS 6 Xposition Yposition Zposition Zrotation Xrotation Yrotation 
				JOINT Neck
				{
					OFFSET 16.3773 0.0 0.0
					CHANNELS 6 Xposition Yposition Zposition Zrotation Xrotation Yrotation 
					JOINT Head
					{
						OFFSET 6.45672 0.0 0.0
						CHANNELS 6 Xposition Yposition Zposition Zrotation Xrotation Yrotation 
						End Site
						{
							OFFSET 0.0 0.0 0.0
						}
					}
				}
				JOINT Shoulder_L
				{
					OFFSET 12.9942 -0.242716 4.98039
					CHANNELS 6 Xposition Yposition Zposition Zrotation Xrotation Yrotation 
					JOINT UpperArm_L
					{
						OFFSET 5.34809 0.0 0.0
						CHANNELS 6 Xposition Yposition Zposition Zrotation Xrotation Yrotation 
						JOINT LowerArm_L
						{
							OFFSET 24.3286 1.87007e-05 0.0
							CHANNELS 6 Xposition Yposition Zposition Zrotation Xrotation Yrotation 
							JOINT Hand_L
							{
								OFFSET 22.2916 0.0 0.0
								CHANNELS 6 Xposition Yposition Zposition Zrotation Xrotation Yrotation 
								End Site
								{
									OFFSET 0.0 0.0 0.0
								}
							}
						}
					}
				}
				JOINT Shoulder_R
				{
					OFFSET 12.9945 -0.242716 -4.98039
					CHANNELS 6 Xposition Yposition Zposition Zrotation Xrotation Yrotation 
					JOINT UpperArm_R
					{
						OFFSET -5.34813 0.0 0.0
						CHANNELS 6 Xposition Yposition Zposition Zrotation Xrotation Yrotation 
						JOINT LowerArm_R
						{
							OFFSET -24.3289 0.000322201 0.0
							CHANNELS 6 Xposition Yposition Zposition Zrotation Xrotation Yrotation 
							JOINT Hand_R
							{
								OFFSET -22.2915 -0.000108084 0.0
								CHANNELS 6 Xposition Yposition Zposition Zrotation Xrotation Yrotation 
								End Site
								{
									OFFSET 0.0 0.0 0.0
								}
							}
						}
					}
				}
			}
		}
		JOINT UpperLeg_L
		{
			OFFSET -2.19248 -6.46944 0.0
			CHANNELS 6 Xposition Yposition Zposition Zrotation Xrotation Yrotation 
			JOINT LowerLeg_L
			{
				OFFSET 39.0811 0.0 -1.23785e-05
				CHANNELS 6 Xposition Yposition Zposition Zrotation Xrotation Yrotation 
				JOINT Foot_L
				{
					OFFSET 40.9854 0.0 -1.26872e-05
					CHANNELS 6 Xposition Yposition Zposition Zrotation Xrotation Yrotation 
					JOINT Toes_L
					{
						OFFSET 11.7543 0.0 0.0
						CHANNELS 6 Xposition Yposition Zposition Zrotation Xrotation Yrotation 
						End Site
						{
							OFFSET 0.0 0.0 0.0
						}
					}
				}
			}
		}
		JOINT UpperLeg_R
		{
			OFFSET -2.19251 6.46944 0.0
			CHANNELS 6 Xposition Yposition Zposition Zrotation Xrotation Yrotation 
			JOINT LowerLeg_R
			{
				OFFSET -39.0811 -0.00228153 -0.0401928
				CHANNELS 6 Xposition Yposition Zposition Zrotation Xrotation Yrotation 
				JOINT Foot_R
				{
					OFFSET -40.9854 0.0 0.0
					CHANNELS 6 Xposition Yposition Zposition Zrotation Xrotation Yrotation 
					JOINT Toes_R
					{
						OFFSET -11.7543 0.0 0.0
						CHANNELS 6 Xposition Yposition Zposition Zrotation Xrotation Yrotation 
						End Site
						{
							OFFSET 0.0 0.0 0.0
						}
					}
				}
			}
		}
	}
}
MOTION
Frames:	4
Frame Time:	0.0333333
0.000000 0.000000 0.000000 0.000000 0.000000 -0.000000 -1.037370 91.835800 -0.361882 87.404500 -1.534360 3.728630 15.735700 0.000005 -0.000001 84.790500 85.492600 -84.273100 8.984550 -0.406207 -0.000000 1.215740 -0.847727 1.042840 16.377300 -0.000001 -0.000001 2.330270 -1.895110 -1.158960 6.456720 -0.000001 -0.000000 -0.016944 -0.359466 2.244100 12.994200 -0.242716 4.980390 -89.678800 -0.985226 -71.943700 5.348090 -0.000007 -0.000001 -64.908700 46.556900 -15.440600 24.328600 0.000019 0.000005 3.480490 6.930280 -26.750200 22.291600 -0.000001 0.000005 9.107260 5.629830 -13.323300 12.994500 -0.242716 -4.980390 87.620700 6.450010 -69.702000 -5.348130 -0.000001 -0.000004 -65.793100 32.416700 -13.413100 -24.328900 0.000322 -0.000009 0.611962 1.835270 -18.475700 -22.291500 -0.000108 -0.000004 7.719390 5.555160 -8.951310 -2.192480 -6.469440 -0.000000 -167.447000 -16.699900 -1.674290 39.081100 -0.000007 -0.000012 -0.214831 0.527798 22.148300 40.985400 -0.000006 -0.000013 -7.003600 2.644610 -64.311600 11.754300 -0.000000 0.000003 -0.000169 -0.001603 -16.638300 -2.192510 6.469440 -0.000001 173.922000 19.403100 -179.505000 -39.081100 -0.002282 -0.040193 -0.077464 0.231074 19.270300 -40.985400 0.000008 0.000006 -4.848720 3.319030 -63.716900 -11.754300 -0.000006 -0.000006 -0.004927 -0.060753 -19.044900
0.000000 0.000000 0.000000 0.000000 0.000000 -0.000000 -1.019800 91.857600 -0.452159 87.446700 -1.496830 3.754270 15.735700 0.000005 -0.000001 84.746000 85.394900 -84.267100 8.984550 -0.406207 -0.000000 1.409560 -0.869529 0.967809 16.377300 -0.000001 -0.000001 2.168980 -1.928290 -1.250910 6.456720 -0.000001 -0.000000 -0.430111 -0.401213 2.031730 12.994200 -0.242716 4.980390 -89.670900 -1.009940 -71.947100 5.348090 -0.000007 -0.000001 -62.933000 48.607000 -16.321200 24.328600 0.000019 0.000005 3.882310 7.182080 -28.491600 22.291600 -0.000001 0.000005 9.269220 5.637120 -13.889800 12.994500 -0.242716 -4.980390 87.632500 6.359720 -69.532200 -5.348130 -0.000001 -0.000004 -65.344300 31.155900 -13.681700 -24.328900 0.000322 -0.000009 0.459411 1.341690 -18.945900 -22.291500 -0.000108 -0.000004 8.117000 5.553620 -8.878080 -2.192480 -6.469440 -0.000000 -167.506000 -16.699200 -1.659760 39.081100 -0.000007 -0.000012 -0.215059 0.531773 22.019700 40.985400 -0.000006 -0.000013 -6.977290 2.665180 -64.183600 11.754300 -0.000000 0.000003 -0.000192 -0.001792 -16.645200 -2.192510 6.469440 -0.000001 173.905000 19.418200 -179.543000 -39.081100 -0.002282 -0.040193 -0.072017 0.215645 19.257800 -40.985400 0.000008 0.000006 -4.689330 3.276980 -63.661100 -11.754300 -0.000006 -0.000006 -0.004937 -0.060853 -19.049000
0.000000 0.000000 0.000000 0.000000 0.000000 -0.000000 -1.002940 91.868700 -0.553973 87.451300 -1.456250 3.684610 15.735700 0.000005 -0.000001 84.425900 85.320700 -83.972900 8.984550 -0.406207 -0.000000 1.552290 -0.933101 0.917829 16.377300 -0.000001 -0.000001 2.061800 -1.900630 -1.289570 6.456720 -0.000001 -0.000000 -0.920250 -0.334648 1.649910 12.994200 -0.242716 4.980390 -89.668100 -1.015230 -71.896200 5.348090 -0.000007 -0.000001 -60.345000 50.790100 -17.265500 24.328600 0.000019 0.000005 4.357560 7.223730 -31.216900 22.291600 -0.000001 0.000005 9.311900 5.645340 -14.585500 12.994500 -0.242716 -4.980390 87.691700 6.151990 -69.386800 -5.348130 -0.000001 -0.000004 -64.658700 29.363900 -14.194000 -24.328900 0.000322 -0.000009 0.216889 0.618161 -19.421400 -22.291500 -0.000108 -0.000004 8.890370 5.551240 -8.765510 -2.192480 -6.469440 -0.000000 -167.564000 -16.798000 -1.836430 39.081100 -0.000007 -0.000012 -0.211499 0.522339 22.043700 40.985400 -0.000006 -0.000013 -6.918820 2.754770 -64.104300 11.754300 -0.000000 0.000003 -0.000174 -0.001644 -16.639800 -2.192510 6.469440 -0.000001 173.951000 19.440200 -179.700000 -39.081100 -0.002282 -0.040193 -0.071138 0.212990 19.269600 -40.985400 0.000008 0.000006 -4.631960 3.230870 -63.600400 -11.754300 -0.000006 -0.000006 -0.004891 -0.060403 -19.030700
0.000000 0.000000 0.000000 0.000000 0.000000 -0.000000 -0.974793 91.887100 -0.648985 87.461900 -1.447150 3.680150 15.735700 0.000005 -0.000001 84.283900 85.238200 -83.873400 8.984550 -0.406207 -0.000000 1.714030 -0.969673 0.834702 16.377300 -0.000001 -0.000001 1.949840 -1.851500 -1.348820 6.456720 -0.000001 -0.000000 -1.303960 -0.292268 1.284660 12.994200 -0.242716 4.980390 -89.631400 -1.122320 -71.817100 5.348090 -0.000007 -0.000001 -56.980900 53.287100 -18.578900 24.328600 0.000019 0.000005 4.423480 6.431370 -34.632200 22.291600 -0.000001 0.000005 9.439090 5.653600 -15.371400 12.994500 -0.242716 -4.980390 87.747500 5.933320 -69.167400 -5.348130 -0.000001 -0.000004 -63.699200 26.660400 -14.973300 -24.328900 0.000322 -0.000009 0.145220 0.407521 -19.746400 -22.291500 -0.000108 -0.000004 9.493620 5.550520 -8.732560 -2.192480 -6.469440 -0.000000 -167.619000 -16.768100 -1.879710 39.081100 -0.000007 -0.000012 -0.209733 0.519650 21.979600 40.985400 -0.000006 -0.000013 -6.885480 2.745710 -64.020800 11.754300 -0.000000 0.000003 -0.000186 -0.001740 -16.643300 -2.192510 6.469440 -0.000001 173.966000 19.461000 -179.759000 -39.081100 -0.002282 -0.040193 -0.066746 0.200948 19.223200 -40.985400 0.000008 0.000006 -4.576470 3.187380 -63.508000 -11.754300 -0.000006 -0.000006 -0.004916 -0.060651 -19.040800
